<?xml version="1.0" encoding="utf-8"?>
<!-- Generator: Adobe Illustrator 21.0.0, SVG Export Plug-In . SVG Version: 6.00 Build 0)  -->
<svg version="1.1" id="Слой_1" xmlns="http://www.w3.org/2000/svg" xmlns:xlink="http://www.w3.org/1999/xlink" x="0px" y="0px"
	 viewBox="0 0 99 99" style="enable-background:new 0 0 99 99;" xml:space="preserve">
<style type="text/css">
	.st0{fill:#FFFFFF;}
</style>
<title>fb_logo</title>
<g id="Слой_2">
	<g id="_16">
		<path class="st0" d="M49.5,0C76.9,0,99,22.2,99.1,49.5S76.9,99,49.5,99C22.2,99,0,76.9,0,49.5c0-13.1,5.2-25.7,14.5-35
			C23.8,5.2,36.4,0,49.5,0z M81.8,17.3C64-0.6,35-0.7,17.2,17.2s-17.9,46.8-0.1,64.6s46.8,17.9,64.6,0.1
			c8.6-8.6,13.4-20.2,13.4-32.4C95.2,37.4,90.4,25.8,81.8,17.3z"/>
		<path class="st0" d="M53.3,39.4v-4.1c-0.2-1.2,0.7-2.2,1.8-2.4c0.1,0,0.3,0,0.4,0h5.7v-8.7h-7.8c-8.7,0-10.6,6.4-10.6,10.6v4.6h-5
			v10.1h5.1v25.3h10.1V49.5h7.5l0.3-4l0.6-6.1L53.3,39.4z"/>
	</g>
</g>
</svg>
