<?xml version="1.0" encoding="utf-8"?>
<!-- Generator: Adobe Illustrator 21.0.0, SVG Export Plug-In . SVG Version: 6.00 Build 0)  -->
<svg version="1.1" id="Слой_1" xmlns="http://www.w3.org/2000/svg" xmlns:xlink="http://www.w3.org/1999/xlink" x="0px" y="0px"
	 viewBox="0 0 99 99" style="enable-background:new 0 0 99 99;" xml:space="preserve">
<style type="text/css">
	.st0{fill:#FFFFFF;}
</style>
<title>chrome_logo</title>
<g id="Слой_2">
	<g id="_16">
		<path class="st0" d="M49.5,0C76.9,0,99,22.2,99.1,49.5S76.9,99,49.5,99C22.2,99,0,76.9,0,49.5c0-13.1,5.2-25.7,14.5-35
			C23.8,5.2,36.4,0,49.5,0z M81.8,17.3C64-0.6,35-0.7,17.2,17.2s-17.9,46.8-0.1,64.6s46.8,17.9,64.6,0.1
			c8.6-8.6,13.4-20.2,13.4-32.4C95.2,37.4,90.4,25.8,81.8,17.3z"/>
		<path class="st0" d="M36.8,49.5c0-7,5.7-12.7,12.7-12.7s12.7,5.7,12.7,12.7s-5.7,12.7-12.7,12.7C42.5,62.2,36.9,56.5,36.8,49.5z
			 M62.6,24.7H36.4c-6.5,0-11.7,5.3-11.7,11.7v26.2c0,6.5,5.3,11.7,11.7,11.7h26.2c6.5,0,11.7-5.3,11.7-11.7V36.4
			C74.4,30,69.1,24.7,62.6,24.7z M36.4,27.6h26.2c4.9,0,8.8,3.9,8.8,8.8v26.2c0,4.9-3.9,8.8-8.8,8.8H36.4c-4.9,0-8.8-3.9-8.8-8.8
			V36.4C27.6,31.6,31.6,27.6,36.4,27.6z M65.2,31.3c-1.4,0-2.6,1.2-2.6,2.6s1.2,2.6,2.6,2.6c1.4,0,2.6-1.2,2.6-2.6l0,0
			C67.8,32.5,66.7,31.3,65.2,31.3C65.2,31.3,65.2,31.3,65.2,31.3z M65.5,49.5c0-8.8-7.2-16-16-16s-16,7.2-16,16s7.2,16,16,16
			S65.5,58.4,65.5,49.5z"/>
	</g>
</g>
</svg>
