<?xml version="1.0" encoding="utf-8"?>
<!-- Generator: Adobe Illustrator 21.0.0, SVG Export Plug-In . SVG Version: 6.00 Build 0)  -->
<svg version="1.1" id="Слой_1" xmlns="http://www.w3.org/2000/svg" xmlns:xlink="http://www.w3.org/1999/xlink" x="0px" y="0px"
	 viewBox="0 0 99 99.1" style="enable-background:new 0 0 99 99.1;" xml:space="preserve">
<style type="text/css">
	.st0{fill:#FFFFFF;}
</style>
<title>twitter_logo</title>
<g id="Слой_2">
	<g id="_16">
		<path class="st0" d="M49.5,0C76.9,0,99,22.2,99.1,49.5S76.9,99,49.5,99C22.2,99,0,76.9,0,49.5c0-13.1,5.2-25.7,14.5-35
			C23.8,5.2,36.4,0,49.5,0z M81.8,17.3C64-0.6,35.1-0.6,17.2,17.3s-17.8,46.7,0,64.5s46.7,17.8,64.5,0c8.5-8.6,13.4-20.2,13.4-32.2
			C95.2,37.4,90.4,25.8,81.8,17.3z"/>
		<path class="st0" d="M74.8,34.1c-1.9,0.8-3.9,1.4-5.9,1.6c2.2-1.3,3.8-3.3,4.6-5.7c-2,1.2-4.3,2-6.6,2.5
			c-3.9-4.2-10.5-4.4-14.7-0.4c-2.1,1.9-3.2,4.6-3.3,7.4c0,0.8,0.1,1.6,0.3,2.3c-8.3-0.4-16.1-4.3-21.4-10.7
			C25,35.8,26.4,41.9,31,44.8c-1.6,0-3.3-0.5-4.7-1.3v0.1c0,1.3,0.2,2.5,0.7,3.7c1.3,3.3,4.2,5.6,7.6,6.3c-0.9,0.3-1.8,0.4-2.7,0.4
			c-0.7,0-1.3-0.1-2-0.2c1.4,4.2,5.2,7.1,9.7,7.2c-3.7,2.8-8.2,4.4-12.9,4.4c-0.9,0-1.6-0.1-2.5-0.1c4.8,3,10.3,4.6,15.9,4.6
			c16.2,0,26.2-11.2,28.8-22.9c0.5-2,0.7-4.1,0.7-6.2v-1.4C71.7,37.9,73.4,36.2,74.8,34.1L74.8,34.1z"/>
	</g>
</g>
</svg>
