<svg xmlns="http://www.w3.org/2000/svg" viewBox="0 0 1323.54 527"><defs><style>.cls-1,.cls-4{fill:#010202;}.cls-1,.cls-2{stroke:#c1c1c1;stroke-miterlimit:10;stroke-width:3px;}.cls-2{fill:none;}.cls-3{fill:#c1c1c1;}</style></defs><title>Ресурс 2</title><g id="Слой_2" data-name="Слой 2"><g id="Слой_3" data-name="Слой 3"><polygon class="cls-1" points="552.01 458.35 490.62 428.74 501.94 405.27 563.33 434.87 557.92 446.09 552.01 458.35"/><rect class="cls-1" x="343.87" y="346.29" width="176.41" height="66.15" transform="translate(207.67 -150.02) rotate(25.74)"/><rect class="cls-1" x="182.74" y="250.6" width="202.47" height="110.26" transform="translate(160.98 -93) rotate(25.74)"/><path class="cls-2" d="M585.75,456"/><path class="cls-2" d="M551.67,458"/><path class="cls-3" d="M563.24,440.32,595,455.16l-2.06-.64c5.18.84,10.61,1.58,15.94,2.25s10.72,1.26,16.09,1.78c10.74,1,21.49,1.73,32.17,1.93a200.69,200.69,0,0,0,31.5-1.55,71.58,71.58,0,0,0,14.35-3.4,28.66,28.66,0,0,0,5.75-2.83,10.92,10.92,0,0,0,3.41-3.33,6.47,6.47,0,0,0,.91-3.72,15.58,15.58,0,0,0-1.27-5.33,50.4,50.4,0,0,0-7.49-12c-6.35-7.87-14.17-15.16-22.27-22.08-16.32-13.82-34.1-26.32-52.18-38.34l.5.3c-1.73-1-3.46-2-5.21-3.17a34.75,34.75,0,0,1-5.34-4.35,19.4,19.4,0,0,1-2.72-3.46,14.54,14.54,0,0,1-1.21-2.54,12.29,12.29,0,0,1-.69-3.34,11.33,11.33,0,0,1,.39-3.75,12,12,0,0,1,1.42-3.18,14.85,14.85,0,0,1,3.59-3.85A27.46,27.46,0,0,1,627,337a57,57,0,0,1,5.91-2,115.44,115.44,0,0,1,11.33-2.45c7.45-1.26,14.8-2.05,22.13-2.69s14.64-1.08,21.93-1.43c29.17-1.35,58.2-1.35,87.22-1,58,.73,115.9,3,173.75,5.61l86.71,4c28.75,1.37,57.61,1.42,86.58,1.74,14.48.16,29,.33,43.54.82,7.28.25,14.57.58,21.92,1.12,3.67.27,7.36.61,11.08,1.06a98.55,98.55,0,0,1,11.41,2,31.84,31.84,0,0,1,6.34,2.19,12.91,12.91,0,0,1,4,3,8.76,8.76,0,0,1,2,3.7,8.38,8.38,0,0,1-.19,4.59,10.1,10.1,0,0,1-1.51,2.88,14.15,14.15,0,0,1-1.56,1.77,22.86,22.86,0,0,1-2.87,2.31,47.5,47.5,0,0,1-5.37,3.13c-3.51,1.77-7,3.22-10.46,4.59s-7,2.61-10.43,3.8c-13.92,4.74-27.9,8.73-41.92,12.58-28,7.63-56.21,14.46-84.42,21.09s-56.47,12.94-84.75,19.15L937,437.71a334.33,334.33,0,0,0-41.13,11.41A116.32,116.32,0,0,0,877,457.64a42.14,42.14,0,0,0-7.79,5.68c-2.2,2.08-3.74,4.4-4.12,6.41a6.52,6.52,0,0,0,.14,3,10.94,10.94,0,0,0,1.66,3.31,28.87,28.87,0,0,0,6.63,6.33A91.1,91.1,0,0,0,891.56,492c13,5.35,26.77,9.21,40.68,12.44s28.07,5.69,42.28,7.67a637.21,637.21,0,0,0,85.91,5.93c28.71,0,57.48-1.86,85.68-6.78a291.29,291.29,0,0,0,41.51-10.24c13.46-4.51,26.54-10.22,38.2-18a93.46,93.46,0,0,0,16-13.25,68,68,0,0,0,11.83-16.68,59.79,59.79,0,0,0,3.75-9.48l3-10.4q3.08-10.44,6.31-20.82c8.57-27.7,17.77-55.14,26.19-82.75s16.11-55.43,20.59-83.76a259.82,259.82,0,0,0,3.43-42.67,160.9,160.9,0,0,0-5.62-42.05A126.71,126.71,0,0,0,1293.46,123a146.52,146.52,0,0,0-29.13-30.77,216.72,216.72,0,0,0-36-23,331.93,331.93,0,0,0-39.5-17c-27.06-9.72-55.1-16.74-83.38-22.34s-56.9-9.65-85.62-12.88A2094.62,2094.62,0,0,0,673.44,6.35q-86.63,4.48-172.73,16-43,5.84-85.68,13.67Q393.7,40,372.48,44.53c-14.13,3.06-28.24,6.27-42.2,10l-.27-1c14-3.82,28.07-7.11,42.21-10.25s28.32-6,42.54-8.72q42.66-8.12,85.68-14.15,86-12.18,172.84-17a2098.48,2098.48,0,0,1,347.06,8.8q21.6,2.3,43.15,5.38t42.93,7.17c28.49,5.51,56.8,12.46,84.27,22.18a337.58,337.58,0,0,1,40.25,17.13,222.56,222.56,0,0,1,37.11,23.48,152.59,152.59,0,0,1,30.47,31.93,133,133,0,0,1,18.95,40,167.33,167.33,0,0,1,6.05,43.71A266.39,266.39,0,0,1,1320.2,247c-4.44,28.9-12.15,57-20.43,84.8s-17.41,55.27-25.83,82.9q-3.16,10.36-6.19,20.75l-3,10.45a67.47,67.47,0,0,1-4.16,10.7,75.76,75.76,0,0,1-13.07,18.67,101.31,101.31,0,0,1-17.27,14.47c-12.43,8.35-26.09,14.37-40,19.12a299.5,299.5,0,0,1-42.64,10.78c-28.81,5.19-58,7.22-87.15,7.39a646.29,646.29,0,0,1-87.2-5.54c-14.46-1.93-28.86-4.38-43.15-7.58s-28.48-7.1-42.31-12.71a100.47,100.47,0,0,1-20.18-10.65,38.5,38.5,0,0,1-9-8.62,20.93,20.93,0,0,1-3.15-6.36,16.67,16.67,0,0,1-.37-7.69,19.23,19.23,0,0,1,2.77-6.77A28.32,28.32,0,0,1,862.1,456a52,52,0,0,1,9.64-7.16,126.11,126.11,0,0,1,20.55-9.44,344.24,344.24,0,0,1,42.39-12l42.38-9.4q42.33-9.48,84.51-19.5c28.1-6.74,56.15-13.68,83.92-21.37,13.86-3.87,27.7-7.9,41.16-12.55,3.36-1.17,6.69-2.38,9.94-3.67s6.45-2.66,9.39-4.16a36.15,36.15,0,0,0,4-2.33,11.34,11.34,0,0,0,1.35-1.08,2.36,2.36,0,0,0,.24-.26,1.83,1.83,0,0,0-.23.5,3.64,3.64,0,0,0-.05,1.92,3.24,3.24,0,0,0,.67,1.35c.33.32.06,0-.37-.14a21,21,0,0,0-3.92-1.28,87.47,87.47,0,0,0-10-1.65c-3.46-.4-7-.71-10.53-1-7.09-.49-14.25-.78-21.43-1-14.37-.42-28.8-.53-43.26-.62-28.9-.19-57.94-.1-87-1.35l-86.74-3.6c-57.79-2.31-115.59-4.35-173.32-4.81-28.85-.18-57.72,0-86.36,1.41-7.16.38-14.29.85-21.37,1.49s-14.12,1.45-20.94,2.64c-3.4.6-6.75,1.29-9.87,2.17a42.67,42.67,0,0,0-4.38,1.47,13.73,13.73,0,0,0-3,1.59c-.27.2-.32.33-.13.06a2.64,2.64,0,0,0,.31-.71,3.38,3.38,0,0,0,.12-1.07,2.41,2.41,0,0,0-.13-.7c0-.13-.05-.14,0-.1a5.52,5.52,0,0,0,.65.77,20.8,20.8,0,0,0,3.09,2.45c1.24.84,2.63,1.66,4.07,2.45l.26.14.25.16c18.43,12.14,36.6,24.77,53.78,39.17,8.55,7.26,16.91,14.89,24.37,24a64.81,64.81,0,0,1,9.81,15.79,30.61,30.61,0,0,1,2.41,10.58,21.9,21.9,0,0,1-3,12,26.07,26.07,0,0,1-8,8.26,43.73,43.73,0,0,1-8.9,4.5,86.4,86.4,0,0,1-17.51,4.3,215.46,215.46,0,0,1-34,1.86c-11.21-.16-22.32-.85-33.38-1.85q-8.3-.75-16.56-1.75c-5.53-.67-11-1.39-16.59-2.27l-1-.16-1-.47L556.46,454.9Z"/><path d="M605.32,191.79l-29.23,31.58V293q0,5.9,2.06,9t7,4.85V313H524.63v-6.09q5.12-1.9,7.11-4.95t2-8.94V73.09q0-5.71-2-8.75t-7.11-4.95V53.31h60.55V59.4q-5.12,1.71-7.11,4.85t-2,8.84V164L656,76.71q5.54-6.09,5.54-9.7,0-5.52-8.24-7.61V53.31h79.31V59.4a20,20,0,0,0-7.11,3q-2.13,1.71-12.37,12.94L702.16,87.54l-66,70.91L711,278.91q10.37,16.74,15,21.59a22.09,22.09,0,0,0,11.58,6.37V313H661.73v-6.09q7.54-2.09,7.54-7.23,0-2.66-6.83-14.08Z"/><path d="M884.46,259.7H811.25L803,282.91q-3,8.37-3,13.13,0,9.13,9.1,11.6V313H750.63v-5.33q5.4-1.14,8-4.38t6.18-12.74L823,133q3.27-8.94,3.27-15.6,0-7.8-8-12.17V99.91h61.83v5.33q-7.82,4.18-7.82,12.94,0,6.28,3.55,15.41l60.27,152.75q5,12.45,7.82,16.12t8.67,5.18V313h-65v-5.33q9.23-2.08,9.23-11.56,0-5.87-3.55-14.59ZM873,229.83l-26.07-68.52-24.81,68.52Z"/><path d="M974.92,293.56V119.32q0-5.89-2-8.94t-7.11-5.14V99.91h93.38q29.14,0,45.91,9.7,23.59,13.7,34,45.27,7.25,22.07,7.25,51.55,0,54.6-24.31,82.75a63.77,63.77,0,0,1-25.8,18.17q-14.85,5.61-37,5.61H965.82v-5.33q5-1.71,7-4.95T974.92,293.56ZM1013,274.35h40.65q28,0,40.65-17.12,13.22-17.88,13.22-50.79t-13.22-50.79a38.39,38.39,0,0,0-16.2-13q-9.67-4.09-24.45-4.09H1013Z"/><path d="M1217.83,119.3V293.38q0,5.89,2,9t7.11,5.23V313h-56.29v-5.33q5-1.71,7-4.95t2.06-9.13V119.32q0-5.89-2-8.94t-7.11-5.14V99.91h56.29v5.33q-5.12,1.9-7.11,5T1217.83,119.3Z"/></g><g id="Слой_2-2" data-name="Слой 2"><path class="cls-4" d="M173.41,402.55c-94.79,0-171.9-77.11-171.9-171.9s77.11-171.9,171.9-171.9,171.9,77.11,171.9,171.9S268.19,402.55,173.41,402.55Z"/><path class="cls-3" d="M173.41,60.26A170.4,170.4,0,1,1,3,230.65a170.4,170.4,0,0,1,170.4-170.4m0-3a172.87,172.87,0,1,0,67.5,13.63,172.32,172.32,0,0,0-67.5-13.63Z"/></g><g id="Слой_1-2" data-name="Слой 1"><path class="cls-2" d="M33.08,133.81"/><path class="cls-2" d="M33.08,133.81"/><path class="cls-2" d="M33.08,133.81"/><path class="cls-2" d="M33.08,133.81"/><path class="cls-2" d="M33.08,133.81"/><path class="cls-2" d="M33.08,133.81"/><path class="cls-2" d="M329.88,312.9"/><path class="cls-2" d="M46.91,114.13"/><path class="cls-2" d="M320.66,326"/><path class="cls-2" d="M37.69,127.25"/><path class="cls-2" d="M311.44,339.15"/><path class="cls-2" d="M28.47,140.37"/><path class="cls-2" d="M302.22,352.27"/><path class="cls-2" d="M19.25,153.49"/><path class="cls-2" d="M293,365.39"/><path class="cls-2" d="M10,166.62"/><path class="cls-2" d="M283.79,378.52"/><path class="cls-2" d="M.82,179.74"/><path class="cls-2" d="M274.57,391.64"/><path class="cls-2" d="M265.35,404.76"/><path class="cls-2" d="M256.13,417.89"/><path class="cls-2" d="M246.91,431"/><path class="cls-2" d="M237.69,444.13"/><path class="cls-2" d="M228.48,457.25"/><path class="cls-2" d="M37.69,335.93c37.86,26.85,46.89,38.88,88,59.82"/><path class="cls-2" d="M22.83,313.52c47.71,46.24,81.8,59.29,139.52,88.49"/><path class="cls-2" d="M10,283.05c55.55,57.67,106.68,84.74,180.65,118.54"/><path class="cls-2" d="M3.85,257.85c63.68,66.83,123.83,104.93,209,139.53"/><path class="cls-2" d="M1.13,235c66.4,75.63,137.58,118.74,232.41,157.27"/><path class="cls-2" d="M2.13,214.55c71.42,82.07,147.61,128.18,248.4,169.37"/><path class="cls-2" d="M5.19,196.22C81.56,280.58,161.76,330.7,266.86,375.33"/><path class="cls-2" d="M10,179.15C89.58,264.54,175.79,314.67,282.2,364.79"/><path class="cls-2" d="M15.54,160.27c86.07,82.22,172.28,140.36,277.81,193.59"/><path class="cls-2" d="M24.73,143.87c92.93,76.57,179.13,134.71,281.52,196.27"/><path class="cls-2" d="M34.36,130.36c97.33,68,182.53,129.18,282.16,196.33"/><path class="cls-2" d="M44.56,117C146.72,177.34,230.92,237.49,325,312.21"/><path class="cls-2" d="M55.08,105.87C159.75,162.31,246,214.43,332.13,296.41"/><path class="cls-2" d="M67.77,95.13c105,50.14,190.21,99.26,270.86,185.26"/><path class="cls-2" d="M82.39,85.33c104.42,43.9,184.61,92,260.09,176.78"/><path class="cls-2" d="M97.64,75.69C195.84,116.2,274,160.31,344.57,242.56"/><path class="cls-2" d="M119.56,68.25c88.06,38.09,161.05,74.85,225.22,149.46"/><path class="cls-2" d="M139.73,61.9c83.16,37.26,141.3,71.34,203,137.5"/><path class="cls-2" d="M161.66,59c70.25,33.17,118.37,57.24,173.67,114"/><path class="cls-2" d="M190.58,59.82C247,91.14,273,95.16,318.66,139"/><path class="cls-2" d="M229.69,66.93"/><path class="cls-2" d="M65.35,87.88"/><path class="cls-2" d="M80.33,66.55"/><path class="cls-2" d="M89.54,53.43"/><path class="cls-2" d="M98.76,40.31"/><path class="cls-2" d="M108,27.18"/><path class="cls-2" d="M117.2,14.06"/><path class="cls-2" d="M126.42.94"/><path class="cls-2" d="M345.27,231.38"/><path class="cls-2" d="M237.93,391.16"/><path class="cls-1" d="M275.25,370.92"/><path class="cls-2" d="M239.92,389.23c51.13-49.5,73.19-81.58,104.24-147.53"/><path class="cls-2" d="M213.3,397.46C275,339.73,312.11,294.62,344.81,214.74"/><path class="cls-2" d="M190.23,401.8C260,338.72,307.1,277.57,340.1,188.93"/><path class="cls-2" d="M169.88,402.31c76.07-67.59,129.2-134.76,163.33-233.07"/><path class="cls-2" d="M150.87,400.86c82.05-71.16,137.18-146.35,176.44-247"/><path class="cls-2" d="M132.46,398.42C213.88,320.68,274,240.48,317.55,136.64"/><path class="cls-2" d="M116.2,393.18C196.84,309.65,257,225.45,306.45,120.81"/><path class="cls-2" d="M294.18,107.67c-57.25,101.74-114.39,193-193.64,279.76"/><path class="cls-2" d="M86.22,379.14c70.52-95.54,132.67-179.74,195.42-282.27"/><path class="cls-2" d="M269.21,86.88C198.85,183.35,138.7,271.57,72.75,370.06"/><path class="cls-2" d="M59.7,359.75C119.65,258.54,176.79,167.32,255,78.63"/><path class="cls-2" d="M240.5,71.53C157.75,154.29,100.61,243.5,48,348.42"/><path class="cls-2" d="M36.85,335.82c45.71-104.35,101.85-190.56,187-269.59"/><path class="cls-2" d="M207.8,61.65C125.67,136.25,65.53,216.44,27.12,320.9"/><path class="cls-2" d="M17.74,304.53C54.5,204.41,109.63,128.23,188.88,59.38"/><path class="cls-2" d="M169.24,58.9C94.6,123.21,45.48,192.38,10.61,287.47"/><path class="cls-2" d="M5.81,267.55c32.66-85.2,77.77-145.34,142.06-206.76"/><path class="cls-2" d="M124.49,65.52c-56.95,56.68-91,106.8-122.8,178.13"/><path class="cls-2" d="M2.69,214.33c28.76-58,43.81-89.12,89.21-135.18"/><path class="cls-2" d="M9.09,177.2"/><path class="cls-2" d="M53.52,105.56"/></g></g></svg>