<?xml version="1.0" encoding="utf-8"?>
<!-- Generator: Adobe Illustrator 21.0.0, SVG Export Plug-In . SVG Version: 6.00 Build 0)  -->
<svg version="1.1" id="Слой_1" xmlns="http://www.w3.org/2000/svg" xmlns:xlink="http://www.w3.org/1999/xlink" x="0px" y="0px"
	 viewBox="0 0 890 200" style="enable-background:new 0 0 890 200;" xml:space="preserve">
<style type="text/css">
	.st0{fill:#FCFCFC;}
	.st1{fill:#FF0000;}
	.st2{fill:#00FF00;}
	.st3{fill:#0000FF;}
	.st4{fill:#3EB5F1;}
	.st5{fill:#D7569C;}
	.st6{fill:#FFF343;}
	.st7{fill:#FFFFFF;}
</style>
<title>Ресурс 1</title>
<g id="Слой_2">
	<g id="Слой_1-2">
		<path class="st0" d="M880,10v180H10V10H880 M890,0H0v200h890V0z"/>
		<path class="st1" d="M64.8,107.6H48.7v62.2H30V31.9h18.7v61h14.4l49.3-61h20.7l0.3,0.5L79.9,98.6l57.4,70.8l-0.3,0.5h-22.3
			L64.8,107.6z"/>
		<path class="st2" d="M229.5,134.3h-57.8l-13.1,35.5h-19L193,31.9h16l52.5,137.9h-19L229.5,134.3z M177.5,118.7H224l-22.7-62.8
			h-0.6L177.5,118.7z"/>
		<path class="st3" d="M299.1,110.1v59.8h-18.7V32h49.9c15.1,0,26.6,3.3,34.6,10s11.9,16.4,11.9,29.2c0.1,6.6-1.8,13.1-5.5,18.5
			c-3.7,5.2-9.1,9.4-16.1,12.5c7.6,2.5,13,6.5,16.3,12s5,12.4,5,20.5v13c-0.1,3.9,0.4,7.8,1.4,11.6c0.8,3.2,2.5,6.1,4.9,8.3v2.3
			h-19.3c-2.5-2.1-4-5.3-4.7-9.5c-0.7-4.3-1-8.6-1-12.9v-12.6c0-7.5-2.2-13.5-6.5-18s-10.2-6.8-17.5-6.8L299.1,110.1z M299.1,95.4
			h29.4c10.5,0,18.1-2,22.8-6c4.6-4,7-10.1,7-18.3c0-7.8-2.3-13.8-6.8-18s-11.5-6.4-21.1-6.4h-31.3V95.4z"/>
		<path class="st4" d="M497.6,46.6h-44.3v123.2h-18.7V46.6h-44.2V31.9h107.2L497.6,46.6L497.6,46.6z"/>
		<path class="st5" d="M582.4,134.3h-57.8l-13.1,35.5h-19l53.3-137.9h16l52.5,137.9h-19L582.4,134.3z M530.4,118.7h46.4l-22.7-62.8
			h-0.6L530.4,118.7z"/>
		<path class="st6" d="M708.4,135.1c0.1-6.1-2.5-11.8-7.1-15.8c-4.7-4.2-13.1-7.8-25.2-10.7c-14.6-3.5-26-8.6-34.2-15.4
			s-12.3-15.3-12.3-25.6c0-10.8,4.4-19.8,13.2-27S663,29.7,677,29.8c15.1,0,27.1,4.1,36,12.4s13.2,17.9,12.9,28.8l-0.2,0.6h-17.8
			c0-8.1-2.7-14.6-8-19.6s-13-7.5-23-7.5c-9.3,0-16.4,2.1-21.4,6.3c-4.9,4-7.6,10.1-7.4,16.4c0,6,2.7,11,8,15s14.1,7.5,26.1,10.6
			c14.5,3.6,25.6,8.9,33.2,15.9c7.4,6.6,11.5,16.1,11.4,26c0,11.1-4.5,20.1-13.6,26.8c-9.1,6.8-21,10.1-35.6,10.1
			c-13.8,0-25.9-3.7-36.5-11.2s-15.7-17.5-15.4-30l0.2-0.6h17.8c0,8.8,3.3,15.6,9.8,20.2s14.6,6.9,24.2,6.9c9.4,0,16.9-2,22.4-5.9
			C705.4,147.5,708.5,141.5,708.4,135.1z"/>
		<path class="st7" d="M858.5,169.8h-18.7v-60.9h-67v60.9h-18.6V31.9h18.7v62.3h67V31.9h18.7L858.5,169.8z"/>
	</g>
</g>
</svg>
