<?xml version="1.0" encoding="utf-8"?>
<!-- Generator: Adobe Illustrator 21.0.0, SVG Export Plug-In . SVG Version: 6.00 Build 0)  -->
<svg version="1.1" id="Слой_1" xmlns="http://www.w3.org/2000/svg" xmlns:xlink="http://www.w3.org/1999/xlink" x="0px" y="0px"
	 viewBox="0 0 1323.5 527" style="enable-background:new 0 0 1323.5 527;" xml:space="preserve">
<style type="text/css">
	.st0{fill:#FFFFFF;stroke:#6D6D6D;stroke-width:3;stroke-miterlimit:10;}
	.st1{fill:none;stroke:#6D6D6D;stroke-width:3;stroke-miterlimit:10;}
	.st2{fill:#6D6D6D;}
	.st3{fill:#FFFFFF;}
	.st4{fill:#FCFCFC;}
</style>
<title>Ресурс 2</title>
<g id="Слой_2">
	<g id="Слой_3">
		<polygon class="st0" points="552,458.4 490.6,428.7 501.9,405.3 563.3,434.9 557.9,446.1 		"/>
		
			<rect x="399" y="291.2" transform="matrix(0.4343 -0.9008 0.9008 0.4343 -97.3148 603.8104)" class="st0" width="66.1" height="176.4"/>
		
			<rect x="228.9" y="204.4" transform="matrix(0.4343 -0.9008 0.9008 0.4343 -114.658 428.8056)" class="st0" width="110.3" height="202.5"/>
		<path class="st1" d="M585.8,456"/>
		<path class="st1" d="M551.7,458"/>
		<path class="st2" d="M562.2,440.3l31.8,14.8l-2.1-0.6c5.2,0.8,10.6,1.6,15.9,2.3s10.7,1.3,16.1,1.8c10.7,1,21.5,1.7,32.2,1.9
			c10.5,0.3,21.1-0.2,31.5-1.5c4.9-0.6,9.7-1.8,14.3-3.4c2-0.7,3.9-1.7,5.8-2.8c1.4-0.8,2.5-2,3.4-3.3c0.7-1.1,1-2.4,0.9-3.7
			c-0.1-1.8-0.5-3.6-1.3-5.3c-1.9-4.3-4.4-8.4-7.5-12c-6.3-7.9-14.2-15.2-22.3-22.1c-16.3-13.8-34.1-26.3-52.2-38.3l0.5,0.3
			c-1.7-1-3.5-2-5.2-3.2c-1.9-1.3-3.7-2.7-5.3-4.4c-1-1-1.9-2.2-2.7-3.5c-0.5-0.8-0.9-1.7-1.2-2.5c-0.4-1.1-0.6-2.2-0.7-3.3
			c-0.1-1.3,0.1-2.5,0.4-3.8c0.3-1.1,0.8-2.2,1.4-3.2c1-1.5,2.2-2.8,3.6-3.9c2-1.5,4.1-2.7,6.4-3.6c1.9-0.8,3.9-1.4,5.9-2
			c3.7-1,7.5-1.8,11.3-2.5c7.5-1.3,14.8-2,22.1-2.7s14.6-1.1,21.9-1.4c29.2-1.4,58.2-1.4,87.2-1c58,0.7,115.9,3,173.8,5.6l86.7,4
			c28.8,1.4,57.6,1.4,86.6,1.7c14.5,0.2,29,0.3,43.5,0.8c7.3,0.3,14.6,0.6,21.9,1.1c3.7,0.3,7.4,0.6,11.1,1.1
			c3.8,0.4,7.6,1.1,11.4,2c2.2,0.5,4.3,1.2,6.3,2.2c1.5,0.7,2.9,1.7,4,3c1,1.1,1.6,2.3,2,3.7c0.4,1.5,0.3,3.1-0.2,4.6
			c-0.3,1-0.9,2-1.5,2.9c-0.5,0.6-1,1.2-1.6,1.8c-0.9,0.8-1.9,1.6-2.9,2.3c-1.7,1.2-3.5,2.2-5.4,3.1c-3.5,1.8-7,3.2-10.5,4.6
			s-7,2.6-10.4,3.8c-13.9,4.7-27.9,8.7-41.9,12.6c-28,7.6-56.2,14.5-84.4,21.1s-56.5,12.9-84.8,19.1l-42.4,9.2
			c-13.9,2.9-27.7,6.7-41.1,11.4c-6.5,2.3-12.8,5.1-18.9,8.5c-2.8,1.6-5.4,3.5-7.8,5.7c-2.2,2.1-3.7,4.4-4.1,6.4c-0.2,1-0.1,2,0.1,3
			c0.4,1.2,0.9,2.3,1.7,3.3c1.9,2.4,4.1,4.6,6.6,6.3c5.6,3.9,11.7,7.1,18,9.6c13,5.4,26.8,9.2,40.7,12.4s28.1,5.7,42.3,7.7
			c28.5,3.9,57.2,5.9,85.9,5.9s57.5-1.9,85.7-6.8c14.1-2.4,27.9-5.8,41.5-10.2c13.5-4.5,26.5-10.2,38.2-18c5.8-3.8,11.2-8.3,16-13.3
			c4.8-4.9,8.8-10.6,11.8-16.7c1.5-3,2.8-6.2,3.8-9.5l3-10.4c2.1-7,4.2-13.9,6.3-20.8c8.6-27.7,17.8-55.1,26.2-82.8
			s16.1-55.4,20.6-83.8c2.3-14.1,3.5-28.4,3.4-42.7c0-14.2-1.9-28.3-5.6-42.1c-3.8-13.6-9.8-26.5-17.8-38.2
			c-8.2-11.6-18-22-29.1-30.8c-11.2-8.8-23.3-16.5-36-23c-12.8-6.5-26-12.2-39.5-17c-27.1-9.7-55.1-16.7-83.4-22.3
			s-56.9-9.6-85.6-12.9C903.9,3.9,788,0.3,672.4,6.3c-57.8,3-115.3,8.3-172.7,16C471,26.2,442.5,30.8,414,36
			c-14.2,2.7-28.4,5.5-42.6,8.5c-14.1,3.1-28.2,6.3-42.2,10l-0.3-1c14-3.8,28.1-7.1,42.2-10.3s28.3-6,42.5-8.7
			c28.4-5.4,57-10.1,85.7-14.1c57.3-8.1,114.9-13.8,172.8-17c115.7-6.7,231.8-3.7,347.1,8.8c14.4,1.5,28.8,3.3,43.1,5.4
			s28.7,4.4,42.9,7.2c28.5,5.5,56.8,12.5,84.3,22.2c13.8,4.8,27.2,10.6,40.3,17.1c13.1,6.6,25.5,14.4,37.1,23.5
			c11.7,9.1,21.9,19.9,30.5,31.9c8.5,12.2,14.9,25.7,18.9,40c3.9,14.2,6,28.9,6.1,43.7c0.1,14.7-1,29.3-3.3,43.8
			c-4.4,28.9-12.2,57-20.4,84.8s-17.4,55.3-25.8,82.9c-2.1,6.9-4.2,13.8-6.2,20.8l-3,10.5c-1.1,3.7-2.5,7.3-4.2,10.7
			c-3.4,6.8-7.8,13.1-13.1,18.7c-5.2,5.5-11,10.3-17.3,14.5c-12.4,8.4-26.1,14.4-40,19.1c-13.9,4.6-28.2,8.2-42.6,10.8
			c-28.8,5.2-58,7.2-87.2,7.4c-29.2,0.1-58.3-1.7-87.2-5.5c-14.5-1.9-28.9-4.4-43.2-7.6s-28.5-7.1-42.3-12.7
			c-7.1-2.8-13.9-6.3-20.2-10.6c-3.4-2.4-6.5-5.3-9-8.6c-1.4-1.9-2.5-4.1-3.2-6.4c-0.7-2.5-0.8-5.1-0.4-7.7c0.5-2.4,1.4-4.7,2.8-6.8
			c1.2-1.9,2.6-3.6,4.2-5.1c2.9-2.8,6.2-5.2,9.6-7.2c6.6-3.8,13.4-6.9,20.5-9.4c13.9-4.9,28-8.9,42.4-12l42.4-9.4
			c28.2-6.3,56.4-12.8,84.5-19.5s56.2-13.7,83.9-21.4c13.9-3.9,27.7-7.9,41.2-12.5c3.4-1.2,6.7-2.4,9.9-3.7s6.4-2.7,9.4-4.2
			c1.4-0.7,2.7-1.5,4-2.3c0.5-0.3,0.9-0.7,1.3-1.1c0.1-0.1,0.2-0.2,0.2-0.3c-0.1,0.2-0.2,0.3-0.2,0.5c-0.2,0.6-0.2,1.3-0.1,1.9
			c0.1,0.5,0.3,1,0.7,1.4c0.3,0.3,0.1,0-0.4-0.1c-1.3-0.6-2.6-1-3.9-1.3c-3.3-0.7-6.6-1.3-10-1.6c-3.5-0.4-7-0.7-10.5-1
			c-7.1-0.5-14.3-0.8-21.4-1c-14.4-0.4-28.8-0.5-43.3-0.6c-28.9-0.2-57.9-0.1-87-1.4l-86.7-3.6c-57.8-2.3-115.6-4.4-173.3-4.8
			c-28.8-0.2-57.7,0-86.4,1.4c-7.2,0.4-14.3,0.9-21.4,1.5s-14.1,1.5-20.9,2.6c-3.4,0.6-6.8,1.3-9.9,2.2c-1.5,0.4-2.9,0.9-4.4,1.5
			c-1.1,0.4-2.1,0.9-3,1.6c-0.3,0.2-0.3,0.3-0.1,0.1c0.1-0.2,0.2-0.5,0.3-0.7c0.1-0.3,0.1-0.7,0.1-1.1c0-0.2-0.1-0.5-0.1-0.7
			c0-0.1,0-0.1,0-0.1c0.2,0.3,0.4,0.5,0.7,0.8c1,0.9,2,1.7,3.1,2.5c1.2,0.8,2.6,1.7,4.1,2.5l0.3,0.1l0.3,0.2
			c18.4,12.1,36.6,24.8,53.8,39.2c8.5,7.3,16.9,14.9,24.4,24c4,4.8,7.3,10.1,9.8,15.8c1.4,3.4,2.2,6.9,2.4,10.6
			c0.2,4.2-0.9,8.4-3,12c-2,3.3-4.8,6.1-8,8.3c-2.8,1.8-5.8,3.3-8.9,4.5c-5.7,2-11.5,3.5-17.5,4.3c-11.3,1.5-22.6,2.1-34,1.9
			c-11.2-0.2-22.3-0.9-33.4-1.9c-5.5-0.5-11.1-1.1-16.6-1.8c-5.5-0.7-11-1.4-16.6-2.3l-1-0.2l-1-0.5l-31.9-14.7L562.2,440.3z"/>
		<path class="st3" d="M605.3,191.8l-29.2,31.6V293c0,3.9,0.7,6.9,2.1,9s3.7,3.7,7,4.9v6.1h-60.5v-6.1c3.4-1.3,5.8-2.9,7.1-5
			c1.3-2,2-5,2-8.9V73.1c0-3.8-0.7-6.7-2-8.8c-1.3-2-3.7-3.7-7.1-5v-6.1h60.5v6.1c-3.4,1.1-5.8,2.8-7.1,4.8c-1.3,2.1-2,5-2,8.8V164
			L656,76.7c3.7-4.1,5.5-7.3,5.5-9.7c0-3.7-2.7-6.2-8.2-7.6v-6.1h79.3v6.1c-2.5,0.5-5,1.5-7.1,3c-1.4,1.1-5.5,5.5-12.4,12.9
			l-11,12.2l-66,70.9L711,278.9c6.9,11.2,11.9,18.4,15,21.6c3.1,3.3,7.2,5.5,11.6,6.4v6.1h-75.9v-6.1c5-1.4,7.5-3.8,7.5-7.2
			c0-1.8-2.3-6.5-6.8-14.1L605.3,191.8z"/>
		<path class="st3" d="M884.5,259.7h-73.2l-8.3,23.2c-2,5.6-3,10-3,13.1c0,6.1,3,10,9.1,11.6v5.4h-58.5v-5.3c3.6-0.8,6.3-2.2,8-4.4
			c1.7-2.2,3.8-6.4,6.2-12.7L823,133c2.2-6,3.3-11.2,3.3-15.6c0-5.2-2.7-9.3-8-12.2v-5.3h61.8v5.3c-5.2,2.8-7.8,7.1-7.8,12.9
			c0,4.2,1.2,9.3,3.5,15.4l60.3,152.8c3.3,8.3,5.9,13.7,7.8,16.1s4.8,4.2,8.7,5.2v5.4h-65v-5.3c6.2-1.4,9.2-5.2,9.2-11.6
			c0-3.9-1.2-8.8-3.5-14.6L884.5,259.7z M873,229.8l-26.1-68.5l-24.8,68.5H873z"/>
		<path class="st4" d="M974.9,293.6V119.3c0-3.9-0.7-6.9-2-8.9s-3.7-3.7-7.1-5.1V100h93.4c19.4,0,34.7,3.2,45.9,9.7
			c15.7,9.1,27.1,24.2,34,45.3c4.8,14.7,7.3,31.9,7.3,51.6c0,36.4-8.1,64-24.3,82.7c-6.9,8.1-15.8,14.4-25.8,18.2
			c-9.9,3.7-22.2,5.6-37,5.6h-93.4v-5.3c3.3-1.1,5.7-2.8,7-5C974.2,300.5,974.9,297.5,974.9,293.6z M1013,274.4h40.7
			c18.7,0,32.2-5.7,40.7-17.1c8.8-11.9,13.2-28.9,13.2-50.8s-4.4-38.9-13.2-50.8c-4.1-5.7-9.7-10.2-16.2-13
			c-6.4-2.7-14.6-4.1-24.4-4.1H1013V274.4z"/>
		<path class="st3" d="M1217.8,119.3v174.1c0,3.9,0.7,6.9,2,9s3.7,3.8,7.1,5.2v5.4h-56.3v-5.3c3.3-1.1,5.7-2.8,7-5s2-5.2,2.1-9.1
			V119.3c0-3.9-0.7-6.9-2-8.9s-3.7-3.7-7.1-5.1V100h56.3v5.3c-3.4,1.3-5.8,2.9-7.1,5S1217.8,115.3,1217.8,119.3z"/>
	</g>
	<g id="Слой_2-2">
		<path class="st3" d="M173.4,402.5c-94.8,0-171.9-77.1-171.9-171.9S78.6,58.8,173.4,58.8s171.9,77.1,171.9,171.9
			S268.2,402.5,173.4,402.5z"/>
		<path class="st2" d="M173.4,60.3c94.1,0,170.4,76.3,170.4,170.4s-76.3,170.4-170.4,170.4C79.3,401.1,3,324.8,3,230.6
			C3,136.5,79.3,60.3,173.4,60.3 M173.4,57.3C77.9,57.4,0.6,134.9,0.7,230.3S78.4,403.1,173.8,403c95.5-0.1,172.8-77.6,172.7-173.1
			c-0.1-69.4-41.7-132-105.6-159C219.5,61.8,196.6,57.2,173.4,57.3z"/>
	</g>
	<g id="Слой_1-2">
		<path class="st1" d="M33.1,133.8"/>
		<path class="st1" d="M33.1,133.8"/>
		<path class="st1" d="M33.1,133.8"/>
		<path class="st1" d="M33.1,133.8"/>
		<path class="st1" d="M33.1,133.8"/>
		<path class="st1" d="M33.1,133.8"/>
		<path class="st1" d="M329.9,312.9"/>
		<path class="st1" d="M46.9,114.1"/>
		<path class="st1" d="M320.7,326"/>
		<path class="st1" d="M37.7,127.3"/>
		<path class="st1" d="M311.4,339.1"/>
		<path class="st1" d="M28.5,140.4"/>
		<path class="st1" d="M302.2,352.3"/>
		<path class="st1" d="M19.3,153.5"/>
		<path class="st1" d="M293,365.4"/>
		<path class="st1" d="M10,166.6"/>
		<path class="st1" d="M283.8,378.5"/>
		<path class="st1" d="M0.8,179.7"/>
		<path class="st1" d="M274.6,391.6"/>
		<path class="st1" d="M265.4,404.8"/>
		<path class="st1" d="M256.1,417.9"/>
		<path class="st1" d="M246.9,431"/>
		<path class="st1" d="M237.7,444.1"/>
		<path class="st1" d="M228.5,457.3"/>
		<path class="st1" d="M37.7,335.9c37.9,26.9,46.9,38.9,88,59.8"/>
		<path class="st1" d="M22.8,313.5c47.7,46.2,81.8,59.3,139.5,88.5"/>
		<path class="st1" d="M10,283c55.6,57.7,106.7,84.7,180.6,118.5"/>
		<path class="st1" d="M3.8,257.9c63.7,66.8,123.8,104.9,209,139.5"/>
		<path class="st1" d="M1.1,235c66.4,75.6,137.6,118.7,232.4,157.3"/>
		<path class="st1" d="M2.1,214.6C73.5,296.7,149.7,342.8,250.5,384"/>
		<path class="st1" d="M5.2,196.2c76.4,84.4,156.6,134.5,261.7,179.1"/>
		<path class="st1" d="M10,179.1c79.6,85.4,165.8,135.5,272.2,185.6"/>
		<path class="st1" d="M15.5,160.3c86.1,82.2,172.3,140.4,277.8,193.6"/>
		<path class="st1" d="M24.7,143.9c92.9,76.6,179.1,134.7,281.5,196.3"/>
		<path class="st1" d="M34.4,130.4c97.3,68,182.5,129.2,282.2,196.3"/>
		<path class="st1" d="M44.6,117C146.7,177.3,230.9,237.5,325,312.2"/>
		<path class="st1" d="M55.1,105.9c104.7,56.4,190.9,108.6,277,190.5"/>
		<path class="st1" d="M67.8,95.1c105,50.1,190.2,99.3,270.9,185.3"/>
		<path class="st1" d="M82.4,85.3c104.4,43.9,184.6,92,260.1,176.8"/>
		<path class="st1" d="M97.6,75.7c98.2,40.5,176.4,84.6,246.9,166.9"/>
		<path class="st1" d="M119.6,68.3c88.1,38.1,161,74.9,225.2,149.5"/>
		<path class="st1" d="M139.7,61.9c83.2,37.3,141.3,71.3,203,137.5"/>
		<path class="st1" d="M161.7,59c70.3,33.2,118.4,57.2,173.7,114"/>
		<path class="st1" d="M190.6,59.8C247,91.1,273,95.2,318.7,139"/>
		<path class="st1" d="M229.7,66.9"/>
		<path class="st1" d="M65.3,87.9"/>
		<path class="st1" d="M80.3,66.6"/>
		<path class="st1" d="M89.5,53.4"/>
		<path class="st1" d="M98.8,40.3"/>
		<path class="st1" d="M108,27.2"/>
		<path class="st1" d="M117.2,14.1"/>
		<path class="st1" d="M126.4,0.9"/>
		<path class="st1" d="M345.3,231.4"/>
		<path class="st1" d="M237.9,391.2"/>
		<path class="st0" d="M275.3,370.9"/>
		<path class="st1" d="M239.9,389.2c51.1-49.5,73.2-81.6,104.2-147.5"/>
		<path class="st1" d="M213.3,397.5c61.7-57.7,98.8-102.8,131.5-182.7"/>
		<path class="st1" d="M190.2,401.8c69.8-63.1,116.9-124.2,149.9-212.9"/>
		<path class="st1" d="M169.9,402.3c76.1-67.6,129.2-134.8,163.3-233.1"/>
		<path class="st1" d="M150.9,400.9c82.1-71.2,137.2-146.4,176.4-247"/>
		<path class="st1" d="M132.5,398.4c81.4-77.7,141.5-157.9,185.1-261.8"/>
		<path class="st1" d="M116.2,393.2c80.6-83.5,140.8-167.7,190.3-272.4"/>
		<path class="st1" d="M294.2,107.7c-57.3,101.7-114.4,193-193.6,279.8"/>
		<path class="st1" d="M86.2,379.1c70.5-95.5,132.7-179.7,195.4-282.3"/>
		<path class="st1" d="M269.2,86.9c-70.4,96.5-130.5,184.7-196.5,283.2"/>
		<path class="st1" d="M59.7,359.8c60-101.2,117.1-192.4,195.3-281.1"/>
		<path class="st1" d="M240.5,71.5c-82.8,82.8-139.9,172-192.5,276.9"/>
		<path class="st1" d="M36.8,335.8c45.7-104.4,101.8-190.6,187-269.6"/>
		<path class="st1" d="M207.8,61.7C125.7,136.3,65.5,216.4,27.1,320.9"/>
		<path class="st1" d="M17.7,304.5c36.8-100.1,91.9-176.3,171.1-245.1"/>
		<path class="st1" d="M169.2,58.9C94.6,123.2,45.5,192.4,10.6,287.5"/>
		<path class="st1" d="M5.8,267.5c32.7-85.2,77.8-145.3,142.1-206.8"/>
		<path class="st1" d="M124.5,65.5c-57,56.7-91,106.8-122.8,178.1"/>
		<path class="st1" d="M2.7,214.3c28.8-58,43.8-89.1,89.2-135.2"/>
		<path class="st1" d="M9.1,177.2"/>
		<path class="st1" d="M53.5,105.6"/>
	</g>
</g>
</svg>
