<svg xmlns="http://www.w3.org/2000/svg" viewBox="0 0 280 168"><defs><style>.cls-1{fill:#fff;}</style></defs><title>music_player</title><g id="Слой_2" data-name="Слой 2"><g id="Слой_1-2" data-name="Слой 1"><path class="cls-1" d="M236.26,130.31a19.13,19.13,0,0,1-9.25-2.18c-5.11-2.91-5.11-7.62,0-10.53,35.71-20.33,35.71-53.41,0-73.74-5.11-2.91-5.11-7.62,0-10.53s13.39-2.91,18.5,0C267.75,46,280,62.82,280,80.73s-12.25,34.74-34.49,47.4A19.12,19.12,0,0,1,236.26,130.31Zm-46.67-7.7a20.83,20.83,0,0,1-10.13-2.41c-5.6-3.21-5.6-8.41,0-11.62,24.21-13.88,24.21-36.47,0-50.35-5.6-3.21-5.6-8.41,0-11.62s14.67-3.21,20.26,0c35.38,20.29,35.38,53.3,0,73.59A20.83,20.83,0,0,1,189.6,122.61ZM156.05,2.77C163.79-2,170.11-.42,170.11,6.39V161.61c0,6.8-6.33,8.44-14.06,3.62L83.33,120H0V48H83.33Z"/></g></g></svg>